<svg xmlns="http://www.w3.org/2000/svg" width="799" height="173" fill="none"><path fill="#000" d="M294.3 109.398c0-18.705-12.47-21.895-21.75-23.78 8.7-2.03 18.85-6.38 18.85-22.765 0-22.33-15.515-25.955-38.86-25.955H227.6v101.5h24.94c25.665 0 41.76-3.19 41.76-29zm-23.2-45.385c0 13.195-6.09 14.935-17.11 14.935h-6.09V51.833h5.365c11.31 0 17.835 1.015 17.835 12.18zm2.9 44.66c0 13.92-8.12 14.79-20.445 14.79H247.9V93.448h6.09c13.05 0 20.01 2.175 20.01 15.225zm74.379-28.42V60.968s-3.625-.87-8.555-.87c-9.425 0-14.355 9.135-14.355 9.135l-2.61-7.685h-16.24v76.85h20.3v-56.84s5.365-2.755 9.86-2.755c4.35 0 11.6 1.45 11.6 1.45zm65.274 19.72c.725-32.915-16.675-39.875-31.175-39.875-15.515 0-32.625 7.54-32.625 39.875 0 35.67 19.575 39.875 35.525 39.875 12.47 0 23.49-3.915 23.49-3.915v-16.095s-13.195 3.915-23.49 3.915c-6.38 0-14.935-2.03-15.37-17.11h43.5l.145-6.67zm-19.865-6.09h-23.78c.29-15.37 3.77-20.59 12.47-20.59 7.395 0 11.02 4.06 11.31 20.59zm88.78 44.515v-53.36c0-21.17-12.615-24.94-27.695-24.94-14.5 0-27.695 4.64-27.695 4.64v16.095s13.34-4.35 24.215-4.35c6.96 0 10.875.87 10.875 8.41v5.51h-13.34c-11.455 0-28.71 3.625-28.71 24.65 0 20.88 12.325 24.795 21.75 24.795 13.195 0 20.735-8.265 20.735-8.265l2.175 6.815h17.69zm-20.3-17.4s-5.8 3.77-12.905 3.77c-5.22 0-8.845-2.175-8.845-10.15 0-9.86 4.495-12.615 15.95-12.905l5.8-.145v19.43zm102.196 17.4-23.055-44.37 20.155-32.48h-23.345l-17.11 33.35 20.59 44.95 22.765-1.45zm-44.95 0v-104.4h-20.3v104.4h20.3zm94.958-1.885v-16.095s-10.73 3.335-16.965 3.335c-8.555 0-14.935-2.9-14.935-23.345 0-22.185 7.83-24.65 16.095-24.65 5.075 0 15.805 3.19 15.805 3.19V63.433s-6.67-3.335-16.24-3.335c-13.195 0-35.96 3.77-35.96 40.31 0 36.25 19.14 39.44 33.785 39.44 9.28 0 18.415-3.335 18.415-3.335zm72.327-36.54c0-34.51-19.14-39.875-35.09-39.875-16.095 0-35.09 6.38-35.09 39.875 0 34.365 19.575 39.875 35.09 39.875 15.37 0 35.09-5.075 35.09-39.875zm-20.3 0c0 22.765-8.265 25.375-14.79 25.375-6.525 0-14.79-2.755-14.79-25.375 0-22.91 6.815-25.52 14.79-25.52 7.975 0 14.79 1.74 14.79 25.52zm51.541 38.425v-104.4h-20.3v104.4h20.3zm80.481 0v-104.4h-20.3v32.19s-5.365-6.09-15.95-6.09c-9.715 0-31.9 4.35-31.9 39.875 0 34.8 16.965 39.875 29 39.875 12.47 0 20.445-7.685 20.445-7.685l2.32 6.235h16.385zm-20.3-18.415s-6.38 4.785-13.05 4.785c-8.12 0-14.5-1.595-14.5-24.795 0-22.91 7.395-24.505 15.95-24.505 6.38 0 11.6 3.915 11.6 3.915v40.6z"/><path fill="#0059F7" d="M0 40C0 17.909 17.909 0 40 0h93c22.091 0 40 17.909 40 40v93c0 22.091-17.909 40-40 40H40c-22.091 0-40-17.909-40-40V40z"/><path fill="#fff" d="M95.8 103c0-15.48-10.32-18.12-18-19.68 7.2-1.68 15.6-5.28 15.6-18.84C93.4 46 80.56 43 61.24 43H40.6v84h20.64c21.24 0 34.56-2.64 34.56-24zM76.6 65.44c0 10.92-5.04 12.36-14.16 12.36H57.4V55.36h4.44c9.36 0 14.76.84 14.76 10.08zM79 102.4c0 11.52-6.72 12.24-16.92 12.24H57.4V89.8h5.04c10.8 0 16.56 1.8 16.56 12.6zm60.355-23.52V62.92s-3-.72-7.08-.72c-7.8 0-11.88 7.56-11.88 7.56l-2.16-6.36h-13.44V127h16.8V79.96s4.44-2.28 8.16-2.28c3.6 0 9.6 1.2 9.6 1.2z"/></svg>